<svg xmlns="http://www.w3.org/2000/svg" xmlns:xlink="http://www.w3.org/1999/xlink" width="643.451" height="542.339" xmlns:v="https://vecta.io/nano"><style><![CDATA[.B{fill:#3f3d56}.C{fill:#2f2e41}.D{fill:#6c63ff}]]></style><g fill="#e6e6e6"><ellipse cx="567" cy="537" rx="70" ry="5.339"/><ellipse cx="226" cy="537" rx="70" ry="5.339"/><path d="M536.5 472h-476a7.51 7.51 0 0 1-7.5-7.5V7.5A7.51 7.51 0 0 1 60.5 0h476a7.51 7.51 0 0 1 7.5 7.5v457a7.51 7.51 0 0 1-7.5 7.5zM60.5 3c-2.484.003-4.497 2.016-4.5 4.5v457c.003 2.484 2.016 4.497 4.5 4.5h476c2.484-.003 4.497-2.016 4.5-4.5V7.5c-.003-2.484-2.016-4.497-4.5-4.5zM88 40c-1.656.002-2.998 1.344-3 3v124c.002 1.656 1.344 2.998 3 3h124c1.656-.002 2.998-1.344 3-3V43c-.002-1.656-1.344-2.998-3-3zm195.04 89.75c-1.978.033-3.565 1.646-3.565 3.625s1.587 3.592 3.565 3.625h170.878c1.297.025 2.508-.646 3.176-1.758s.691-2.496.06-3.63-1.82-1.843-3.117-1.861q-.06-.001-.119 0zm0-33c-1.978.033-3.565 1.646-3.565 3.625s1.587 3.592 3.565 3.625h48.878c1.297.025 2.508-.646 3.176-1.758s.691-2.496.06-3.63-1.82-1.843-3.117-1.861q-.06-.001-.119 0zm0 67c-1.978.033-3.565 1.646-3.565 3.625s1.587 3.592 3.565 3.625h170.878c1.998.028 3.642-1.567 3.675-3.565s-1.558-3.646-3.556-3.684q-.06-.001-.119 0zm203.269 130.962H251.471c-4.578 0-8.288-2.643-8.293-5.9V237.77c.005-3.257 3.715-5.9 8.293-5.9h234.838c4.578 0 8.288 2.643 8.293 5.9v51.041c-.004 3.257-3.715 5.897-8.293 5.901zm-159 124H92.471c-4.578 0-8.288-2.643-8.293-5.9V361.77c.005-3.257 3.715-5.9 8.293-5.9h234.838c4.578 0 8.288 2.643 8.293 5.9v51.041c-.004 3.257-3.715 5.897-8.293 5.901z"/></g><path d="M256.466 446.83H21.628c-4.578 0-8.288-2.643-8.293-5.9v-51.042c.005-3.257 3.715-5.9 8.293-5.9h234.838c4.578 0 8.288 2.643 8.293 5.9v51.041c-.004 3.257-3.715 5.897-8.293 5.901zM21.628 386.346c-2.747 0-4.973 1.586-4.976 3.54v51.041c0 1.954 2.229 3.538 4.976 3.54h234.838c2.747 0 4.973-1.586 4.976-3.54v-51.039c0-1.954-2.229-3.538-4.976-3.54z" class="B"/><g class="D"><circle cx="341" cy="288" r="19"/><circle cx="56" cy="415" r="19"/></g><g class="B"><use xlink:href="#B"/><use xlink:href="#B" y="20"/><use xlink:href="#B" x="-285" y="127"/><use xlink:href="#B" x="-285" y="147"/></g><g class="C"><circle cx="568.973" cy="475.931" r="43.067"/><path d="M575.515 509.73h13.084v23.442h-13.084zm-26.168 0h13.084v23.442h-13.084z"/><ellipse cx="577.696" cy="533.445" rx="10.903" ry="4.089"/><ellipse cx="551.528" cy="532.899" rx="10.903" ry="4.089"/></g><circle cx="567.883" cy="465.027" r="14.719" fill="#fff"/><circle cx="567.883" cy="465.027" r="4.906" class="B"/><path d="M610.75 435.879c3.477-15.574-7.639-31.31-24.829-35.149s-33.944 5.675-37.422 21.249 7.915 21.318 25.105 25.156 33.668 4.318 37.145-11.256z" fill="#e6e6e6"/><path d="M110.31 189.96a42.83 42.83 0 0 1-4.43 19.04l-1.05 2H29.66l-1.05-2c-7.858-15.933-5.127-35.055 6.875-48.152s30.815-17.481 47.371-11.04 27.459 22.387 27.454 40.152z" class="C"/><circle cx="68.336" cy="179.052" r="14.719" fill="#fff"/><circle cx="68.336" cy="179.052" r="4.906" class="B"/><use xlink:href="#C" class="D"/><path d="M129 77H5c-2.761.001-4.999 2.239-5 5v124c.001 2.761 2.239 4.999 5 5h124c2.761-.001 4.999-2.239 5-5V82c-.001-2.761-2.239-4.999-5-5zm3 129a3.01 3.01 0 0 1-3 3H5a3.01 3.01 0 0 1-3-3V82a3.01 3.01 0 0 1 3-3h124a3.01 3.01 0 0 1 3 3z" class="B"/><g class="C"><ellipse cx="537.065" cy="622.239" rx="21.534" ry="6.76" transform="matrix(.357029 -.934093 .934093 .357029 -514.18629 722.92057)"/><circle cx="497.258" cy="654.761" r="43.067" transform="matrix(.160182 -.987087 .987087 .160182 -506.97468 861.88678)"/><path d="M199.358 509.73h13.084v23.442h-13.084zm26.168 0h13.084v23.442h-13.084z"/><ellipse cx="210.261" cy="533.445" rx="10.903" ry="4.089"/><ellipse cx="236.429" cy="532.899" rx="10.903" ry="4.089"/></g><use xlink:href="#C" x="151.738" y="285.975" class="D"/><g class="C"><ellipse cx="448.75" cy="634.778" rx="6.76" ry="21.534" transform="matrix(.428529 -.903528 .903528 .428529 -595.36631 589.38455)"/><circle cx="581.968" cy="344.643" r="42.012"/><path d="M588.503 377.584l12.763-.059.106 22.867-12.763.059zm-25.526.119l12.763-.059.106 22.867-12.763.059z"/><ellipse cx="845.091" cy="581.776" rx="10.636" ry="3.989" transform="matrix(.863692 -.50402 .50402 .863692 -456.30877 326.41344)"/><ellipse cx="870.086" cy="581.66" rx="10.636" ry="3.989" transform="matrix(.863692 -.50402 .50402 .863692 -452.84325 338.99529)"/></g><circle cx="580.855" cy="334.012" r="14.359" fill="#fff"/><circle cx="575.937" cy="327.919" r="4.786" class="B"/><path d="M622.539 305.383c3.322-15.208-7.593-30.508-24.379-34.175s-33.087 5.69-36.408 20.898 7.818 20.759 24.604 24.426 32.862 4.059 36.184-11.149z" class="D"/><g class="C"><ellipse cx="816.367" cy="502.203" rx="6.594" ry="21.006" transform="matrix(.389202 -.921153 .921153 .389202 -242.24392 879.91271)"/><ellipse cx="902.204" cy="537.022" rx="6.594" ry="21.006" transform="matrix(.389202 -.921153 .921153 .389202 -221.88888 980.24914)"/></g><path d="M590.458 362.95c.022 3.422-1.784 6.595-4.737 8.323s-6.604 1.749-9.577.054-4.814-4.848-4.831-8.27v-.019c-.025-5.287 4.256-6.402 9.543-6.426s9.577 1.05 9.602 6.337z" fill="#fff"/><path d="M547.403 319.665H312.565c-4.578 0-8.288-2.643-8.293-5.9v-51.042c.005-3.257 3.715-5.9 8.293-5.9h234.838c4.578 0 8.288 2.643 8.293 5.9v51.041c-.004 3.257-3.715 5.897-8.293 5.901zm-234.838-60.484c-2.747 0-4.973 1.586-4.976 3.54v51.041c0 1.954 2.229 3.538 4.976 3.54h234.838c2.747 0 4.973-1.586 4.976-3.54v-51.039c0-1.954-2.229-3.538-4.976-3.54z" class="B"/><defs ><path id="B" d="M382.04 274.375c-1.978.033-3.565 1.646-3.565 3.625s1.587 3.592 3.565 3.625h135.878c1.998.028 3.642-1.567 3.675-3.565s-1.558-3.646-3.556-3.684q-.06-.001-.119 0z"/><path id="C" d="M25.469 149.904c-3.477-15.574 7.639-31.31 24.829-35.149s33.944 5.675 37.422 21.249-7.915 21.318-25.105 25.156-33.668 4.318-37.145-11.256z"/></defs></svg>