<svg xmlns="http://www.w3.org/2000/svg" width="221" height="316" fill="none" fill-rule="evenodd" xmlns:v="https://vecta.io/nano"><path d="M146.474 47.672c4.286-5.03 7.186-11.195 6.701-18.103-1.396-19.903-29.102-15.525-34.491-5.479s-4.749 35.526 2.216 37.322c2.778.716 8.695-1.038 14.718-4.668l-3.781 26.744h22.321l-7.684-35.815z" fill="#b28b67"/><path d="M162.907 22.944c.721-.714 1.114-1.734 1.454-2.702l.931-3.069c.469-2.092.473-4.497-1.019-6.122-1.197-1.303-2.993-1.887-4.65-2.014-1.104-.085-2.238.07-3.297.418-1.05.345-1.955 1.033-2.973 1.46-.039-2.254-.425-4.613-1.569-6.538-1.1-1.852-2.855-2.891-4.853-3.166-2.051-.282-4.076.198-5.912 1.191l-1.351.804c-.365.247-.745.544-1.173.645-.477.112-.714-.164-1.024-.512a7.78 7.78 0 0 0-1.207-1.087c-1.918-1.409-4.433-1.989-6.655-1.144-1.023.389-2.019 1.05-2.713 1.961-.619.812-1.061 2.1-1.915 2.666-.362.24-.618-.078-.949-.313l-1.47-1.087c-.705-.483-1.468-.844-2.285-1.033-1.197-.277-2.85-.212-3.192 1.355-.128.589-.03 1.218.012 1.811l.187 2.441.238 1.82c.062.323.256.926.118 1.249-.173.405-.973.175-1.314.189-.675.028-1.352.146-1.976.434-.483.223-.991.552-1.195 1.106-.125.34-.092.69-.033 1.04.071.42-.01.643-.063 1.067-.906-.446-4.045-1.437-4.44.186-.132.541.168 1.151.396 1.607.401.8.926 1.53 1.463 2.227 1.121 1.454 2.458 2.708 3.897 3.781-1.686.75-2.126 2.96-.666 4.277.644.582 1.511.711 2.324.674.297-.014.726-.128.96-.076.126.028.261.135.436.146 1.147.079 2.442-.198 3.564-.452 1.998-.454 3.89-1.401 5.435-2.843.397-.37.724-.583 1.258-.577.467.005.926.133 1.393.145 1.235.032 2.35-.573 3.497-.975.07 1.55.512 3.258 1.146 4.652.517 1.137 1.597 1.302 2.658 1.402 3.393.319 6.799-.037 10.196-.032-3.289.743-6.687 1.05-9.947 1.925-1.474.395-.348 1.388.282 2.077 1.037 1.134 1.808 2.538 2.343 4.018 1.609-2.097 4.453-3.479 6.973-2.835 2.783.712 4.744 4.476 2.963 7.183-1.033 1.571-2.899 2.178-4.452 2.853 1.211 1.26 1.504 3.12 2.233 4.687.36.773.865 1.647 1.669 1.916.298.1.647.108.881.351.291.3.36.636.732.894 1.481 1.03 3.796.951 5.109-.394 1.188-1.216.879-3.14-.113-4.372 1.579-.658 4.456-1.505 3.828-3.965 3.422-.227 11.729-5.776 7.137-9.831 2.52-1.424 4.836-4.905 3.217-7.974-1.247-2.363-4.146-3.419-6.524-3.544z" fill="#191847"/><path d="M194.501 199.742h-71.85l-9.414 115.324H220.19l-25.689-115.324z" fill="#c5cfd6"/><path d="M194.501 199.742H172.403L159.177 315.066H220.19L194.501 199.742Z" fill="#000" fill-opacity=".1"/><path d="M40.738 179.984c-7.66-4.6-20.513 1.31-20.504 7.889.026 19.684 17.99 112.453 18.928 118.317s10.985 7.414 11.57.019c.931-11.765 2.661-52.495.93-71.347l-2.241-21.805c9.426 17.023 24.004 41.395 43.734 73.116l10.71-4.893c-8.41-27.712-15.307-47.275-20.69-58.691-9.216-19.546-17.858-36.285-21.495-42.181-5.721-9.274-15.68-6.038-20.942-.424z" fill="#b28b67"/><path d="M103.1 265.89l-36.762-87.086c-8.807-14.167-33.499 2.883-30.495 11.1 6.818 18.654 41.495 79.045 43.527 84.603l23.731-8.617z" fill="#1f28cf"/><path d="M105.141 275.788c2.29 1.885 3.78 3.425 4.469 4.619.839 1.452 1.82 3.711 2.945 6.777l-45.428 26.228c-3.434-3.221-3.969-5.721-1.605-7.501l5.852-4.503 15.68-21.603a.93.93 0 0 1 1.299-.206l.021.016 3.258 2.508c2.989-.261 5.219-.816 6.691-1.666 1.196-.69 2.569-2.127 4.118-4.31h0a1.86 1.86 0 0 1 2.594-.44 2.09 2.09 0 0 1 .105.081zm-52.057 25.701c1.04 2.777 1.561 4.856 1.561 6.235 0 1.677-.279 4.124-.838 7.342H1.351c-1.363-4.507-.576-6.94 2.361-7.299l7.319-.973 24.381-10.869a.93.93 0 0 1 1.228.47.37.37 0 0 1 .01.025l1.567 3.801c2.719 1.269 4.928 1.903 6.628 1.903 1.381 0 3.288-.558 5.722-1.673h0a1.86 1.86 0 0 1 2.466.915 1.99 1.99 0 0 1 .051.123z" fill="#e4e4e4"/><path d="M17.657 194.564c0 24.708 11.734 82.343 11.741 87.783l25.246.02c-3.695-51.427-5.006-77.417-3.931-77.971 1.612-.831 66.079 6.436 85.414 6.436 27.881 0 39.415-17.582 40.351-50.152h-55.231c-11.246 1.204-69.904 13.035-91.688 17.102-9.326 1.741-11.903 9.976-11.903 16.782z" fill="#2b44ff"/><path d="M112.643 102.739l-32.281-17.68c-5.368-6.375-10.657-11.326-15.868-14.853-1.592-.665-4.376-1.067-1.772 3.554s5.134 9.599 3.808 11.023-4.634-.565-6.217 1.8c-1.055 1.577 4.596 4.068 16.953 7.474l23.456 21.476 11.921-12.795zm-50.558 14.918l-14.18-7.79c-1.99-7.571-4.368-11.38-7.135-11.427-2.126-.989 1.576 8.577-2.454 7.748s-13.865-8.145-15.559-6.66c-2.507 2.198-.272 8.944 2.362 12.301 4.923 6.272 8.999 8.417 19.073 11.226 5.267 1.469 10.962 4.413 17.085 8.832l.807-14.23z" fill="#997659"/><path d="M128.365 98.801c-11.307-.12-26.385-2.508-42.473-12.72l-6.318 14.09c11.097 11.013 26.701 20.062 40.345 19.679 10.752-.302 16.247-13.308 8.447-21.049z" fill="#2026a2"/><path d="M113.14 121.397c-12.004 2.994-32.133-.537-60.389-10.591-7.008 14.499-10.248 24.836-9.72 31.011 24.239 12.661 45.014 18.306 62.129 18.679-.544 10.156.692 19.819 4.845 28.649 8.537 18.153 58.526 1.341 75.334 4.65 10.525-34.183-9.826-48.075-9.843-69.947-.018-23.953-19.25-60.821-22.08-60.821h-25.805c-1.424 18.293-8.591 38.453-14.472 58.37z" fill="#1f28cf"/></svg>