<svg xmlns="http://www.w3.org/2000/svg" xmlns:xlink="http://www.w3.org/1999/xlink" width="831" height="729.989" xmlns:v="https://vecta.io/nano"><g fill="#f1f1f1"><path d="M723.976 703.572v-72.34s28.192 51.286 0 72.34z"/><path d="M725.718 703.559l-53.29-48.921s56.845 13.916 53.29 48.921zm-619.259.013v-72.34s-28.192 51.286 0 72.34z"/><path d="M104.718 703.559l53.29-48.921s-56.845 13.916-53.29 48.921z"/></g><path d="M590.756 167.048h-3.862V61.239A61.24 61.24 0 0 0 525.654 0H301.484a61.24 61.24 0 0 0-61.239 61.239v580.476c0 33.822 27.418 61.239 61.239 61.239h224.17c33.822 0 61.239-27.418 61.239-61.239v-399.35h3.862z" fill="#3f3d56"/><path d="M528.125 15.932h-29.262a21.73 21.73 0 0 1-20.117 29.933H350.322a21.73 21.73 0 0 1-20.117-29.934h-27.33c-25.258 0-45.733 20.475-45.733 45.733v579.624c0 12.129 4.818 23.761 13.395 32.338s20.209 13.395 32.338 13.395h225.25c12.129 0 23.761-4.818 32.338-13.395s13.395-20.209 13.395-32.338h0V61.665c0-12.129-4.818-23.761-13.395-32.338s-20.209-13.395-32.338-13.395z" fill="#fff"/><path d="M522.483 677.07H308.517c-24.585 0-44.587-17.853-44.587-39.796v-28.811c0-17.49 15.929-31.719 35.508-31.719h232.122c19.579 0 35.508 14.229 35.508 31.719v28.811c0 21.943-20.001 39.796-44.587 39.796z" fill="#e5e5e5"/><use xlink:href="#B" fill="#6c63ff"/><g fill="#e5e5e5"><use xlink:href="#C"/><use xlink:href="#C" x="72.236"/><use xlink:href="#B" x="216.709"/><use xlink:href="#D"/><use xlink:href="#C" x="-0.171" y="88.36"/></g><g fill="#6c63ff"><use xlink:href="#B" x="144.302" y="88.36"/><path d="M547.547 281.205H499.82a3.23 3.23 0 0 1-3.225-3.225v-47.728a3.23 3.23 0 0 1 3.225-3.225h47.727a3.23 3.23 0 0 1 3.225 3.225v47.728a3.23 3.23 0 0 1-3.225 3.225z"/></g><g fill="#e5e5e5"><use xlink:href="#D" x="-0.171" y="88.361"/><use xlink:href="#B" x="71.895" y="176.721"/><use xlink:href="#C" x="71.894" y="176.721"/><use xlink:href="#C" x="144.131" y="176.721"/><path d="M330.497 457.926H282.77a3.23 3.23 0 0 1-3.225-3.225v-47.728a3.23 3.23 0 0 1 3.225-3.225h47.728a3.23 3.23 0 0 1 3.225 3.225v47.728a3.23 3.23 0 0 1-3.225 3.225z"/><use xlink:href="#D" x="71.895" y="176.721"/><use xlink:href="#C" x="71.724" y="265.081"/><use xlink:href="#B" x="216.197" y="265.081"/></g><g fill="#fff"><use xlink:href="#E"/><use xlink:href="#F"/><use xlink:href="#F" x="72.236"/><use xlink:href="#E" x="216.709"/></g><g fill="#e5e5e5"><circle cx="392.111" cy="548.221" r="6.45"/><circle cx="415.329" cy="548.221" r="6.45"/><circle cx="438.548" cy="548.221" r="6.45"/></g><path d="M830 704H1a1 1 0 1 1 0-2h829a1 1 0 1 1 0 2z" fill="#cbcbcb"/><path d="M326.364 507.102a13.05 13.05 0 0 0-1.76-19.932l12.596-44.629-22.964 7.303-8.44 41.261a13.12 13.12 0 0 0 20.569 15.997z" fill="#ffb7b7"/><path d="M332.894 479.747a5.97 5.97 0 0 1-1.245.105l-22.03-.441a5.84 5.84 0 0 1-5.659-6.693l22.348-150.991c1.378-9.024 9.129-15.696 18.257-15.717h0c5.652.014 10.985 2.624 14.464 7.078s4.72 10.26 3.366 15.747l-15.84 64.157-8.983 81.661c-.268 2.542-2.167 4.611-4.677 5.094z" fill="#3f3d56"/><path fill="#ffb7b7" d="M342.105 718.105h12.26l5.833-47.288-18.095.001.002 47.287z"/><path d="M338.978 714.103l24.144-.001h.001a15.39 15.39 0 0 1 15.386 15.386v.5l-39.531.001z" fill="#2f2e41"/><path fill="#ffb7b7" d="M394.382 714.123l12.183 1.366 11.067-46.343-17.982-2.016-5.268 46.993z"/><path d="M391.72 709.797l23.994 2.69h.001a15.39 15.39 0 0 1 13.576 17.005l-.056.497-39.285-4.405zm-61.121-254.842s-16.808 37.209-1.965 61.377l8.843 188.168h20.303l19.697-152 35 45-21.324 105.028 24.832 1.394L450.476 597.5s-26.498-117.349-35.249-120.174l-5.751-26.826z" fill="#2f2e41"/><path d="M323.118 487.622S307.976 505 347.976 511s82-3 83-15-107.858-8.378-107.858-8.378z" fill="#cbcbcb"/><path d="M523.635 272.053a11.61 11.61 0 0 1-14.059 10.925l-15.12 21.804-15.491-5.957 21.785-30.492c1.63-5.686 7.256-9.254 13.095-8.305s10.045 6.115 9.791 12.025z" fill="#ffb7b7"/><g fill="#3f3d56"><path d="M395.764 300.107l-21.377-9.671-27.39 1.958S313.976 331 326.976 368l-8 129c51 14 74.183-12.258 111-1l-11.372-143.369z"/><path d="M381.476 309.5l14.287-9.393s19.846-3 27.78 4.697c0 0 26.927 2.254 33.43 8.975l7.16 1.614 23.787-30.802 14.556 7.909-21 57-62.872 3.131z"/></g><circle cx="554.72" cy="334.983" r="33.745" transform="matrix(.877455 -.47966 .47966 .877455 -277.19936 222.12213)" fill="#ffb7b7"/><path d="M341.033 223.595c6.023-10.834 13.55-17.848 25.943-17.595s23.113-.237 28.689 10.834c1.474-2.759 2.212-5.852 2.143-8.979 3.441 2.234 5.225 6.3 4.539 10.345a7.51 7.51 0 0 0 3.708-6.165c4.136 1.376 5.212 7.205 3.119 11.029s-6.197 6.035-10.135 7.904-2.12 11.755-4.691 15.275c-1.795 2.456-2.615 5.467-3.825 8.258a.54.54 0 0 1-.245.256c-2.773 1.546-4.523 4.309-4.033 7.445.058.235.044.482-.039.71-3.51 6.613-7.299 13.532-13.662 17.478-5.105 3.083-11.221 4.028-17.019 2.631-6.504-1.555-12.126-5.867-16.18-11.184s-6.662-11.602-8.622-17.996c-1.738-5.671-3.002-11.735-1.624-17.505s6.047-11.112 11.962-11.558" fill="#2f2e41"/><defs ><path id="B" d="M331.009 192.845h-47.728a3.23 3.23 0 0 1-3.225-3.225v-47.728a3.23 3.23 0 0 1 3.225-3.225h47.728a3.23 3.23 0 0 1 3.225 3.225v47.728a3.23 3.23 0 0 1-3.225 3.225z"/><path id="C" d="M403.246 192.845h-47.727a3.23 3.23 0 0 1-3.225-3.225v-47.728a3.23 3.23 0 0 1 3.225-3.225h47.727a3.23 3.23 0 0 1 3.225 3.225v47.728a3.23 3.23 0 0 1-3.225 3.225z"/><path id="D" d="M330.839 281.205h-47.728a3.23 3.23 0 0 1-3.225-3.225v-47.728a3.23 3.23 0 0 1 3.225-3.225h47.727a3.23 3.23 0 0 1 3.225 3.225v47.728a3.23 3.23 0 0 1-3.225 3.225z"/><path id="E" d="M331.009 655.286h-47.728a3.23 3.23 0 0 1-3.225-3.225v-47.727a3.23 3.23 0 0 1 3.225-3.225h47.728a3.23 3.23 0 0 1 3.225 3.225v47.727a3.23 3.23 0 0 1-3.225 3.225z"/><path id="F" d="M403.246 655.286h-47.727a3.23 3.23 0 0 1-3.225-3.225v-47.727a3.23 3.23 0 0 1 3.225-3.225h47.727a3.23 3.23 0 0 1 3.225 3.225v47.727a3.23 3.23 0 0 1-3.225 3.225z"/></defs></svg>